# xmcd CD database file
#
# Track frame offsets:
#	150
#	16729
#	22075
#	26467
#	35046
#
# Disc length: 636 seconds
#
# Revision: 0
# Processed by: cddbd v1.5.1PL0 Copyright (c) Steve Scherf et al.
# Submitted via: CDex 1.51
#
DISCID=33027a05
DTITLE=Benjamin Creighton Griffiths - Ben Jamming
DYEAR=2003
DGENRE=Jazz
TTITLE0=Natalina
TTITLE1=Huna Blentyn
TTITLE2=Ole
TTITLE3=Booming Boogie
TTITLE4=New Blues
EXTD=YEAR: 2003
EXTT0=
EXTT1=
EXTT2=
EXTT3=
EXTT4=
PLAYORDER=
